<svg xmlns="http://www.w3.org/2000/svg" width="61.529" height="46.547" viewBox="0 0 61.529 46.547">
  <g id="about-us" transform="translate(0 -63.461)">
    <path id="Path_1557" data-name="Path 1557" d="M177.089,386.757a.9.9,0,0,0-.9.9v4.715a.9.9,0,0,0,1.791,0v-4.715A.9.9,0,0,0,177.089,386.757Z" transform="translate(-155.162 -284.456)" fill="#0f8096"/>
    <path id="Path_1558" data-name="Path 1558" d="M322.266,386.757a.9.9,0,0,0-.9.9v4.715a.9.9,0,0,0,1.791,0v-4.715A.9.9,0,0,0,322.266,386.757Z" transform="translate(-283.009 -284.456)" fill="#0f8096"/>
    <path id="Path_1559" data-name="Path 1559" d="M70.561,99.176l-3-1.2v-.766a5.943,5.943,0,0,0,1.561-1.255,5.379,5.379,0,0,0,5.561-7.485l-1.346-3.1a2.863,2.863,0,0,1-.207-.731,8.469,8.469,0,0,0-16.766,0,2.86,2.86,0,0,1-.207.731l-1.346,3.1a5.385,5.385,0,0,0,4.908,7.526,5.535,5.535,0,0,0,.645-.038,5.887,5.887,0,0,0,1.4,1.165v.851l-3,1.2a6.075,6.075,0,0,0-.572.265,7.816,7.816,0,0,0-2.438-2.708l-3.9-2.685a1.642,1.642,0,0,0-.576-1.331L49.7,91.371a1.642,1.642,0,0,0-.5-.29V89.268a8.026,8.026,0,0,0,3.215-5.193h.1a3.093,3.093,0,0,0,2.419-5.024l.64-4.549a6.071,6.071,0,0,0-5.1-6.831l-.127-.019a7.9,7.9,0,0,0-4.616-3.5l-.234-.066a9.124,9.124,0,0,0-7.574,1.2.9.9,0,1,0,1,1.488A7.336,7.336,0,0,1,45,65.813l.234.066A6.187,6.187,0,0,1,49.717,72.2l-.607-.522a1.515,1.515,0,0,0-1.939-.03l-.8.643H41.831a5.354,5.354,0,0,0-5.348,5.348v.249a3.088,3.088,0,0,0-.69.081,10.447,10.447,0,0,1,.795-8.686.9.9,0,1,0-1.549-.9,12.247,12.247,0,0,0-.815,10.5,3.094,3.094,0,0,0,2.272,5.2h.1A8.026,8.026,0,0,0,39.8,89.268v1.812a1.639,1.639,0,0,0-.5.29L37.72,92.717a1.642,1.642,0,0,0-.576,1.331l-3.9,2.685a7.815,7.815,0,0,0-2,1.994,7.207,7.207,0,0,0-1.078-.486L27.511,97.3V96.6a5.618,5.618,0,0,0,2.591-3.85h.4a2.846,2.846,0,0,0,2.165-4.7l.16-1.892a7.759,7.759,0,0,0-10.741-7.783l-1.784.75a5.45,5.45,0,0,0-4.215,6.07l.4,2.846a2.846,2.846,0,0,0,2.157,4.706h.4a5.614,5.614,0,0,0,2.334,3.68V97.3l-2.651.939a7.268,7.268,0,0,0-1.087.49.9.9,0,1,0,.866,1.567,5.47,5.47,0,0,1,.818-.369l2.291-.811a3.067,3.067,0,0,0,5.659,0l2.291.811a5.4,5.4,0,0,1,.833.378,7.816,7.816,0,0,0-.546,2.87v5.311a.9.9,0,0,0,1.791,0v-5.311a6.029,6.029,0,0,1,2.613-4.968l3.729-2.564,1.528,2.043a1.719,1.719,0,0,0,1.375.687,1.7,1.7,0,0,0,.5-.074l2.224-.677v11.239a.9.9,0,0,0,1.791,0V97.623l2.224.677a1.716,1.716,0,0,0,1.871-.613l1.528-2.043,3.729,2.564a6.029,6.029,0,0,1,2.613,4.968v5.311a.9.9,0,0,0,1.791,0v-5.311a7.82,7.82,0,0,0-.277-2.062,4.294,4.294,0,0,1,.565-.277l2.6-1.043a2.9,2.9,0,0,0,5.256,0l2.6,1.043a4.291,4.291,0,0,1,2.706,4v1.515a.9.9,0,1,0,1.791,0v-1.515a6.074,6.074,0,0,0-3.83-5.663ZM35.189,80.98a1.306,1.306,0,0,1,1.294-1.3v2.609A1.306,1.306,0,0,1,35.189,80.98ZM30.5,90.956h-.323V88.84H30.5a1.058,1.058,0,0,1,0,2.116ZM17.584,89.9a1.059,1.059,0,0,1,1.058-1.058h.323v2.116h-.323A1.059,1.059,0,0,1,17.584,89.9Zm2.469-5.608A5.68,5.68,0,0,0,19,87.05h-.355a2.86,2.86,0,0,0-.482.042l-.3-2.145a3.657,3.657,0,0,1,2.889-4.086.89.89,0,0,0,.169-.052l1.863-.783a5.968,5.968,0,0,1,8.262,5.984l-.091,1.076a2.857,2.857,0,0,0-.449-.036h-.331a1.509,1.509,0,0,0-1.5-1.354H26.462a7.307,7.307,0,0,1-4.39-1.476l-.253-.192a1.248,1.248,0,0,0-1.765.262Zm1.45,1.05h0Zm-.747,2.305a3.9,3.9,0,0,1,.455-1.837,9.112,9.112,0,0,0,5.251,1.678h1.927v4.337a3.816,3.816,0,1,1-7.632,0Zm3.687,11.566a1.278,1.278,0,0,1-1.276-1.276v-.683a5.618,5.618,0,0,0,2.553.06v.623A1.278,1.278,0,0,1,24.444,99.211ZM52.519,82.284V79.675a1.3,1.3,0,0,1,0,2.609Zm1.274-8.032-.524,3.727a3.091,3.091,0,0,0-.75-.095v-.072a6.977,6.977,0,0,0-1.255-3.992,7.883,7.883,0,0,0-.025-4.084A4.279,4.279,0,0,1,53.793,74.253Zm-15.52,8.523v-5.14a3.561,3.561,0,0,1,3.557-3.557h4.861a.9.9,0,0,0,.562-.2l.863-.7.8.689a5.191,5.191,0,0,1,1.809,3.94v4.963a6.227,6.227,0,1,1-12.455,0ZM44.5,90.794a7.974,7.974,0,0,0,2.906-.547v1.147L44.5,92.818,41.6,91.394V90.246A7.976,7.976,0,0,0,44.5,90.794Zm-3.589,5.778-1.929-2.578,1.408-1.2,3.214,1.576v1.378Zm7.177,0-2.693-.82V94.373L48.61,92.8l1.408,1.2ZM56.907,92.8a3.546,3.546,0,0,1-.451-3.623l1.346-3.1a4.647,4.647,0,0,0,.337-1.188,6.679,6.679,0,0,1,13.222,0,4.649,4.649,0,0,0,.337,1.188l1.346,3.1a3.6,3.6,0,0,1-2.835,4.995,5.749,5.749,0,0,0,.365-1.591.9.9,0,0,0-1.784-.148A4.053,4.053,0,0,1,60.7,92.1V87.8a4.942,4.942,0,0,1,.8-2.684,7,7,0,0,0,4.045,1.429l3.266.086v2.062a.9.9,0,0,0,1.791,0v-2.3a1.533,1.533,0,0,0-1.5-1.541l-3.508-.092A5.2,5.2,0,0,1,62.457,83.6l-.231-.188a1.309,1.309,0,0,0-1.848.2A6.736,6.736,0,0,0,58.905,87.8V92.1a5.812,5.812,0,0,0,.383,2.077,3.541,3.541,0,0,1-2.38-1.37Zm7.76,6.881a1.107,1.107,0,0,1-1.106-1.106v-.76a5.85,5.85,0,0,0,1.189.122,5.755,5.755,0,0,0,1.023-.093v.731A1.107,1.107,0,0,1,64.667,99.685Z" transform="translate(-13.909)" fill="#0f8096" stroke="#0f8096" stroke-width="0.5"/>
    <path id="Path_1560" data-name="Path 1560" d="M1.919,379.315a.9.9,0,0,0-1.2.416A7.173,7.173,0,0,0,0,382.88v2.854a.9.9,0,0,0,1.791,0V382.88a5.393,5.393,0,0,1,.544-2.37A.9.9,0,0,0,1.919,379.315Z" transform="translate(0 -277.823)" fill="#0f8096"/>
  </g>
</svg>
