<svg xmlns="http://www.w3.org/2000/svg" width="21.615" height="31.962" viewBox="0 0 21.615 31.962">
  <g id="arrow-left" transform="matrix(-1, -0.017, 0.017, -1, 39.799, 46.239)">
    <path id="arrow-left-2" data-name="arrow-left" d="M20.974,16.728a4.607,4.607,0,0,1-1.27,2.343L7.866,30.25a4.608,4.608,0,1,1-6.5-6.53L9.749,15.8,1.35,7.867A4.608,4.608,0,0,1,7.86,1.343l11.856,11.2a4.588,4.588,0,0,1,1.257,2.33,4.64,4.64,0,0,1,.093.928A4.766,4.766,0,0,1,20.974,16.728Z" transform="translate(18.982 13.948)" fill="#fff"/>
  </g>
</svg>
