<svg xmlns="http://www.w3.org/2000/svg" width="39.087" height="38.232" viewBox="0 0 39.087 38.232">
  <g id="calendar-order" transform="translate(0 -20.9)">
    <g id="Group_294" data-name="Group 294" transform="translate(0 20.9)">
      <g id="Group_293" data-name="Group 293" transform="translate(0 0)">
        <path id="Path_400" data-name="Path 400" d="M35.035,24.152H32.581V22.018a1.023,1.023,0,1,0-2.036,0v2.135H20.567V22.018a1.023,1.023,0,1,0-2.036,0v2.135H8.451V22.018A1.074,1.074,0,0,0,7.432,20.9a1.074,1.074,0,0,0-1.018,1.118v2.135H4.062A4.342,4.342,0,0,0,0,28.678V54.661a4.276,4.276,0,0,0,4.062,4.47H35.024a4.273,4.273,0,0,0,4.062-4.459V28.678A4.327,4.327,0,0,0,35.035,24.152Zm2.026,30.509A2.14,2.14,0,0,1,35.045,56.9H4.062a2.131,2.131,0,0,1-2.026-2.224V28.678a2.186,2.186,0,0,1,2.026-2.291H6.414v1.62a1.074,1.074,0,0,0,1.018,1.118,1.074,1.074,0,0,0,1.018-1.118v-1.62H18.53v1.62a1.023,1.023,0,1,0,2.036,0v-1.62h9.978v1.62a1.023,1.023,0,1,0,2.036,0v-1.62h2.454a2.186,2.186,0,0,1,2.026,2.291Z" transform="translate(0 -20.9)" fill="#0f8096"/>
      </g>
    </g>
    <g id="Group_296" data-name="Group 296" transform="translate(13.957 33.668)">
      <g id="Group_295" data-name="Group 295">
        <path id="Path_401" data-name="Path 401" d="M141.209,135h-1.915a1.094,1.094,0,0,0,0,2.188h1.915a1.094,1.094,0,1,0,0-2.188Z" transform="translate(-138.2 -135)" fill="#0f8096"/>
      </g>
    </g>
    <g id="Group_298" data-name="Group 298" transform="translate(20.986 33.668)">
      <g id="Group_297" data-name="Group 297">
        <path id="Path_402" data-name="Path 402" d="M210.809,135h-1.915a1.094,1.094,0,1,0,0,2.188h1.915a1.094,1.094,0,0,0,0-2.188Z" transform="translate(-207.8 -135)" fill="#0f8096"/>
      </g>
    </g>
    <g id="Group_300" data-name="Group 300" transform="translate(28.076 33.668)">
      <g id="Group_299" data-name="Group 299">
        <path id="Path_403" data-name="Path 403" d="M281.009,135h-1.915a1.094,1.094,0,1,0,0,2.188h1.915a1.094,1.094,0,1,0,0-2.188Z" transform="translate(-278 -135)" fill="#0f8096"/>
      </g>
    </g>
    <g id="Group_302" data-name="Group 302" transform="translate(13.957 41.389)">
      <g id="Group_301" data-name="Group 301">
        <path id="Path_404" data-name="Path 404" d="M141.209,204h-1.915a1.094,1.094,0,0,0,0,2.188h1.915a1.094,1.094,0,1,0,0-2.188Z" transform="translate(-138.2 -204)" fill="#0f8096"/>
      </g>
    </g>
    <g id="Group_304" data-name="Group 304" transform="translate(6.868 41.389)">
      <g id="Group_303" data-name="Group 303">
        <path id="Path_405" data-name="Path 405" d="M71.02,204H69.094a1.094,1.094,0,1,0,0,2.188h1.915A1.094,1.094,0,0,0,71.02,204Z" transform="translate(-68 -204)" fill="#0f8096"/>
      </g>
    </g>
    <g id="Group_306" data-name="Group 306" transform="translate(20.986 41.389)">
      <g id="Group_305" data-name="Group 305">
        <path id="Path_406" data-name="Path 406" d="M210.809,204h-1.915a1.094,1.094,0,1,0,0,2.188h1.915a1.094,1.094,0,1,0,0-2.188Z" transform="translate(-207.8 -204)" fill="#0f8096"/>
      </g>
    </g>
    <g id="Group_308" data-name="Group 308" transform="translate(28.076 41.389)">
      <g id="Group_307" data-name="Group 307">
        <path id="Path_407" data-name="Path 407" d="M281.009,204h-1.915a1.094,1.094,0,1,0,0,2.188h1.915a1.094,1.094,0,1,0,0-2.188Z" transform="translate(-278 -204)" fill="#0f8096"/>
      </g>
    </g>
    <g id="Group_310" data-name="Group 310" transform="translate(13.957 48.999)">
      <g id="Group_309" data-name="Group 309">
        <path id="Path_408" data-name="Path 408" d="M141.209,272h-1.915a1.094,1.094,0,1,0,0,2.188h1.915a1.094,1.094,0,1,0,0-2.188Z" transform="translate(-138.2 -272)" fill="#0f8096"/>
      </g>
    </g>
    <g id="Group_312" data-name="Group 312" transform="translate(6.868 48.999)">
      <g id="Group_311" data-name="Group 311">
        <path id="Path_409" data-name="Path 409" d="M71.02,272H69.094a1.094,1.094,0,1,0,0,2.188h1.915A1.094,1.094,0,0,0,71.02,272Z" transform="translate(-68 -272)" fill="#0f8096"/>
      </g>
    </g>
    <g id="Group_314" data-name="Group 314" transform="translate(20.986 48.999)">
      <g id="Group_313" data-name="Group 313">
        <path id="Path_410" data-name="Path 410" d="M210.809,272h-1.915a1.094,1.094,0,1,0,0,2.188h1.915a1.094,1.094,0,1,0,0-2.188Z" transform="translate(-207.8 -272)" fill="#0f8096"/>
      </g>
    </g>
  </g>
</svg>
