<svg xmlns="http://www.w3.org/2000/svg" width="74" height="74" viewBox="0 0 74 74">
  <g id="Call-service" transform="translate(-554 -1614)">
    <circle id="Ellipse_332" data-name="Ellipse 332" cx="37" cy="37" r="37" transform="translate(554 1614)" fill="#0f8096"/>
    <g id="phone-call_4_" data-name="phone-call (4)" transform="translate(572.195 1631.194)">
      <g id="Group_705" data-name="Group 705" transform="translate(0 0.001)">
        <g id="Group_704" data-name="Group 704" transform="translate(0 0)">
          <path id="Path_1773" data-name="Path 1773" d="M249.547,24.185h.077A14.045,14.045,0,0,1,263.7,38.328a1.547,1.547,0,0,0,1.54,1.555h.008a1.547,1.547,0,0,0,1.547-1.54A17.14,17.14,0,0,0,249.625,21.09h-.085a1.547,1.547,0,0,0,.007,3.095Z" transform="translate(-228.814 -19.458)" fill="#fff"/>
          <path id="Path_1774" data-name="Path 1774" d="M39.606,31.917a5.859,5.859,0,0,0-1.8-4.026,14.391,14.391,0,0,0-5.7-3.785,6.377,6.377,0,0,0-6.548,1.858l-.009.009-2.094,2.078a31.153,31.153,0,0,1-6.594-5.1l-.2-.2a31.349,31.349,0,0,1-5.1-6.6l2.076-2.092.009-.009A6.377,6.377,0,0,0,15.505,7.5,14.391,14.391,0,0,0,11.72,1.8a5.888,5.888,0,0,0-8.171-.295l-.044.04q-.031.028-.06.057A12.553,12.553,0,0,0,0,10.8c.032,6.361,3.528,13.635,9.352,19.459l.015.014a37.759,37.759,0,0,0,3.7,3.216,1.547,1.547,0,0,0,1.883-2.456,34.6,34.6,0,0,1-3.4-2.963l-.014-.014C6.274,22.8,3.123,16.343,3.095,10.784A9.558,9.558,0,0,1,5.6,3.82l.012-.011a2.783,2.783,0,0,1,3.877.14C13.5,8.1,13.208,10.065,11.438,11.88L8.57,14.77a1.547,1.547,0,0,0-.315,1.719,31.264,31.264,0,0,0,6.221,8.443l.2.2a31.263,31.263,0,0,0,8.442,6.221,1.547,1.547,0,0,0,1.719-.315l2.889-2.868c1.815-1.77,3.777-2.061,7.931,1.945A2.783,2.783,0,0,1,35.8,34l-.011.012A9.53,9.53,0,0,1,28.9,36.516h-.071a20.063,20.063,0,0,1-7.635-1.807,1.547,1.547,0,0,0-1.226,2.841,22.826,22.826,0,0,0,8.845,2.06H28.9a12.526,12.526,0,0,0,9.109-3.443c.02-.02.039-.04.057-.06l.04-.045A5.86,5.86,0,0,0,39.606,31.917Z" transform="translate(0 -0.001)" fill="#fff"/>
          <path id="Path_1775" data-name="Path 1775" d="M298.161,114.3a8.5,8.5,0,0,0-4.018-2.312,1.547,1.547,0,1,0-.825,2.983,5.412,5.412,0,0,1,2.655,1.517,5.53,5.53,0,0,1,1.5,2.606l.022.076a1.547,1.547,0,1,0,2.967-.878l-.021-.071A8.515,8.515,0,0,0,298.161,114.3Z" transform="translate(-269.578 -103.276)" fill="#fff"/>
        </g>
      </g>
    </g>
  </g>
</svg>
