<svg xmlns="http://www.w3.org/2000/svg" xmlns:xlink="http://www.w3.org/1999/xlink" width="1164" height="268" viewBox="0 0 1164 268">
  <defs>
    <filter id="Menu-box" x="0" y="0" width="1164" height="268" filterUnits="userSpaceOnUse">
      <feOffset dy="-9" input="SourceAlpha"/>
      <feGaussianBlur stdDeviation="12.5" result="blur"/>
      <feFlood flood-opacity="0.141"/>
      <feComposite operator="in" in2="blur"/>
      <feComposite in="SourceGraphic"/>
    </filter>
    <filter id="Ellipse_364" x="504.5" y="69.5" width="138" height="138" filterUnits="userSpaceOnUse">
      <feOffset dy="3" input="SourceAlpha"/>
      <feGaussianBlur stdDeviation="3" result="blur-2"/>
      <feFlood flood-opacity="0.161"/>
      <feComposite operator="in" in2="blur-2"/>
      <feComposite in="SourceGraphic"/>
    </filter>
  </defs>
  <g id="cat" transform="translate(37.5 -2858.5)">
    <g transform="matrix(1, 0, 0, 1, -37.5, 2858.5)" filter="url(#Menu-box)">
      <path id="Menu-box-2" data-name="Menu-box" d="M70,0h949a70,70,0,0,1,70,70V193a0,0,0,0,1,0,0H0a0,0,0,0,1,0,0V70A70,70,0,0,1,70,0Z" transform="translate(37.5 46.5)" fill="#fff"/>
    </g>
    <text id="سفارش_ها" data-name="سفارش ها" transform="translate(349 3058)" fill="#cbd3ff" font-size="27" font-family="IRANSans-Medium, IRANSans" font-weight="500"><tspan x="-55.585" y="0">سفارش ها</tspan></text>
    <text id="دسته_بندی" data-name="دسته بندی" transform="translate(962 3058)" fill="#cbd3ff" font-size="27" font-family="IRANSans-Medium, IRANSans" font-weight="500"><tspan x="-57.434" y="0">دسته بندی</tspan></text>
    <text id="کاربری" transform="translate(151 3058)" fill="#cbd3ff" font-size="27" font-family="IRANSans-Medium, IRANSans" font-weight="500"><tspan x="-33.257" y="0">کاربری</tspan></text>
    <g id="user_2_" data-name="user (2)" transform="translate(101.466 2965.2)">
      <g id="Group_2722" data-name="Group 2722" transform="translate(35.031)">
        <g id="Group_2721" data-name="Group 2721">
          <path id="Path_4707" data-name="Path 4707" d="M125.8,0a15.007,15.007,0,1,0,15.007,15.007A15.047,15.047,0,0,0,125.8,0Z" transform="translate(-110.791)" fill="#cbd3ff"/>
        </g>
      </g>
      <g id="Group_2724" data-name="Group 2724" transform="translate(24.165 31.088)">
        <g id="Group_2723" data-name="Group 2723" transform="translate(0)">
          <path id="Path_4708" data-name="Path 4708" d="M75.792,258.76a13.99,13.99,0,0,0-1.507-2.752,18.654,18.654,0,0,0-12.91-8.126,2.762,2.762,0,0,0-1.9.459,16,16,0,0,1-18.874,0,2.459,2.459,0,0,0-1.9-.459,18.518,18.518,0,0,0-12.91,8.126,16.13,16.13,0,0,0-1.507,2.752A1.394,1.394,0,0,0,24.349,260a26.144,26.144,0,0,0,1.769,2.621,24.9,24.9,0,0,0,3.015,3.408,39.276,39.276,0,0,0,3.015,2.621,29.885,29.885,0,0,0,35.65,0,28.815,28.815,0,0,0,3.015-2.621,30.262,30.262,0,0,0,3.015-3.408A22.973,22.973,0,0,0,75.6,260,1.118,1.118,0,0,0,75.792,258.76Z" transform="translate(-24.165 -247.841)" fill="#cbd3ff"/>
        </g>
      </g>
    </g>
    <g id="list_1_" data-name="list (1)" transform="translate(263.325 2965.2)">
      <g id="Group_2726" data-name="Group 2726" transform="translate(74.838)">
        <g id="Group_2725" data-name="Group 2725">
          <path id="Path_4709" data-name="Path 4709" d="M179.869,3.613h-3.923a5.42,5.42,0,0,0-10.22,0h-3.92A1.807,1.807,0,0,0,160,5.419v7.225a1.807,1.807,0,0,0,1.806,1.806h18.063a1.807,1.807,0,0,0,1.806-1.806V5.419A1.807,1.807,0,0,0,179.869,3.613Z" transform="translate(-160)" fill="#cbd3ff"/>
        </g>
      </g>
      <g id="Group_2728" data-name="Group 2728" transform="translate(64 7.225)">
        <g id="Group_2727" data-name="Group 2727">
          <path id="Path_4710" data-name="Path 4710" d="M103.738,64h-3.613v5.419a5.425,5.425,0,0,1-5.419,5.419H76.644a5.425,5.425,0,0,1-5.419-5.419V64H67.613A3.618,3.618,0,0,0,64,67.613v43.35a3.573,3.573,0,0,0,3.613,3.613h36.125a3.573,3.573,0,0,0,3.612-3.613V67.613A3.573,3.573,0,0,0,103.738,64ZM85.148,95.985l-7.225,7.225a1.814,1.814,0,0,1-2.558,0L71.752,99.6a1.806,1.806,0,0,1,2.554-2.554l2.337,2.334,5.946-5.946a1.807,1.807,0,0,1,2.558,2.554Zm0-14.45L77.923,88.76a1.814,1.814,0,0,1-2.558,0l-3.613-3.612a1.806,1.806,0,0,1,2.554-2.554l2.337,2.334,5.946-5.946a1.807,1.807,0,0,1,2.558,2.554Zm13.171,18.59H91.094a1.806,1.806,0,0,1,0-3.613h7.225a1.806,1.806,0,0,1,0,3.613Zm0-14.45H91.094a1.806,1.806,0,0,1,0-3.613h7.225a1.806,1.806,0,0,1,0,3.613Z" transform="translate(-64 -64)" fill="#cbd3ff"/>
        </g>
      </g>
    </g>
    <g transform="matrix(1, 0, 0, 1, -37.5, 2858.5)" filter="url(#Ellipse_364)">
      <circle id="Ellipse_364-2" data-name="Ellipse 364" cx="60" cy="60" r="60" transform="translate(513.5 75.5)" fill="#2d3d9a"/>
    </g>
    <g id="home-_4_" transform="translate(463.642 3434.198)">
      <path id="Path_4713" data-name="Path 4713" d="M69.469-468.813a14.621,14.621,0,0,0-4.5,1.818c-.923.583-16.593,13.432-17.855,14.64a13.051,13.051,0,0,0-3.3,5.59l-.312,1.085v12.211c0,11.56.014,12.265.258,13.161a11.953,11.953,0,0,0,8.67,8.751c1.1.258,1.533.285,5.495.244l4.3-.041.909-.434a5.663,5.663,0,0,0,2.795-2.741l.5-1.018.068-6.105c.081-5.834.095-6.16.366-6.906a9.784,9.784,0,0,1,.638-1.357,7.24,7.24,0,0,1,2.619-2.374,4.034,4.034,0,0,1,2.212-.366,4.034,4.034,0,0,1,2.212.366,7.307,7.307,0,0,1,2.632,2.388,8.288,8.288,0,0,1,.624,1.425c.271.787.285,1.235.353,6.892l.081,6.038.5,1.018a5.663,5.663,0,0,0,2.795,2.741l.909.434,4.3.041c3.962.041,4.4.014,5.495-.244a11.665,11.665,0,0,0,8.086-7.082c.882-2.2.828-1.33.882-14.273.041-13.011.041-12.971-.814-15.182a13.869,13.869,0,0,0-2.781-4.192c-1.452-1.411-16.919-14.1-18.018-14.775A14.191,14.191,0,0,0,69.469-468.813Z" fill="#fff"/>
    </g>
    <g id="customer-service-_1_" transform="translate(697.825 3425.999)">
      <path id="Path_4711" data-name="Path 4711" d="M40.457-460.672a27.264,27.264,0,0,0-21.463,14.76l-.734,1.453h-.72a10.183,10.183,0,0,0-7.606,4.375c-1.552,2.342-1.806,3.641-1.722,8.933.056,4.459.127,4.854,1.072,6.8a10.2,10.2,0,0,0,8.961,5.574c2.1,0,4.248-.677,4.826-1.538.536-.8.466-1.51-.353-3.189a22.976,22.976,0,0,1-1.5-16.623A23.137,23.137,0,0,1,35.97-455.38a22.567,22.567,0,0,1,19.869,2.7A23.078,23.078,0,0,1,65.7-437.614a29.637,29.637,0,0,1-.014,7.9,23.038,23.038,0,0,1-14.309,17.357A21.581,21.581,0,0,1,47.6-411.3c-.212,0-.367-.141-.494-.437a5.194,5.194,0,0,0-.917-1.214,5.875,5.875,0,0,0-9.455,1.58,5.874,5.874,0,0,0,4.3,8.283A6.09,6.09,0,0,0,47.3-406.3l.353-.691,1.242-.254a27.2,27.2,0,0,0,15.988-10.3l1.03-1.369,1.439.1a10.148,10.148,0,0,0,10.471-7.507,47.828,47.828,0,0,0,.127-9.977,10.138,10.138,0,0,0-3.119-5.6,10.226,10.226,0,0,0-6.04-2.554h-.734l-.536-1.1A27.176,27.176,0,0,0,40.457-460.672Z" transform="translate(0 0)" fill="#cbd3ff"/>
      <path id="Path_4712" data-name="Path 4712" d="M146.435-394.546a18.007,18.007,0,0,0-11.007,5.5,18.068,18.068,0,0,0-4.544,8.82,23.356,23.356,0,0,0-.071,6.28,18.783,18.783,0,0,0,4.121,8.679l.4.423-.988,3.669a22.568,22.568,0,0,0-.9,4.078,2.3,2.3,0,0,0,1.115,1.552c1.03.48,1.27.4,5.391-1.976l3.838-2.187,1.171.254a21.717,21.717,0,0,0,6.759,0,17.858,17.858,0,0,0,9.017-4.784,18.275,18.275,0,0,0,5.108-9.709,23.355,23.355,0,0,0-.071-6.28,17.973,17.973,0,0,0-8.424-11.938A18.566,18.566,0,0,0,146.435-394.546Zm-4.248,15.8a2.084,2.084,0,0,1-.931,3.951,2.067,2.067,0,0,1-1.58-3.4A1.914,1.914,0,0,1,142.187-378.741Zm7.253.113a2.077,2.077,0,0,1,.776,2.653,2.132,2.132,0,0,1-3.528.409,1.98,1.98,0,0,1,.042-2.625A2,2,0,0,1,149.441-378.628Zm7.056-.014a2.068,2.068,0,0,1-.818,3.81,2.113,2.113,0,0,1-2.357-2.554,2.7,2.7,0,0,1,1.284-1.439A2.132,2.132,0,0,1,156.5-378.642Z" transform="translate(-105.159 -56.827)" fill="#cbd3ff"/>
    </g>
    <text id="پشتیبانی" transform="translate(736 3058)" fill="#cbd3ff" font-size="27" font-family="IRANSans-Medium, IRANSans" font-weight="500"><tspan x="-48.125" y="0">پشتیبانی</tspan></text>
    <g id="Group_2763" data-name="Group 2763">
      <g id="open-menu" transform="translate(943.915 2975.356)">
        <path id="Path_4765" data-name="Path 4765" d="M16.191,22.333H6.142A6.148,6.148,0,0,1,0,16.191V6.142A6.148,6.148,0,0,1,6.142,0h10.05a6.148,6.148,0,0,1,6.142,6.142v10.05A6.148,6.148,0,0,1,16.191,22.333ZM6.142,2.978A3.167,3.167,0,0,0,2.978,6.142v10.05a3.167,3.167,0,0,0,3.164,3.164h10.05a3.167,3.167,0,0,0,3.164-3.164V6.142a3.167,3.167,0,0,0-3.164-3.164Z" fill="#cbd3ff"/>
        <path id="Path_4766" data-name="Path 4766" d="M288.191,22.333h-10.05A6.148,6.148,0,0,1,272,16.191V6.142A6.148,6.148,0,0,1,278.142,0h10.05a6.148,6.148,0,0,1,6.142,6.142v10.05A6.148,6.148,0,0,1,288.191,22.333ZM278.142,2.978a3.167,3.167,0,0,0-3.164,3.164v10.05a3.167,3.167,0,0,0,3.164,3.164h10.05a3.167,3.167,0,0,0,3.164-3.164V6.142a3.167,3.167,0,0,0-3.164-3.164Z" transform="translate(-246.689)" fill="#cbd3ff"/>
        <path id="Path_4767" data-name="Path 4767" d="M283.166,294.333a11.166,11.166,0,1,1,11.166-11.166A11.179,11.179,0,0,1,283.166,294.333Zm0-19.355a8.189,8.189,0,1,0,8.189,8.189A8.2,8.2,0,0,0,283.166,274.978Z" transform="translate(-246.689 -246.689)" fill="#cbd3ff"/>
        <path id="Path_4768" data-name="Path 4768" d="M16.191,294.333H6.142A6.148,6.148,0,0,1,0,288.191v-10.05A6.148,6.148,0,0,1,6.142,272h10.05a6.148,6.148,0,0,1,6.142,6.142v10.05A6.148,6.148,0,0,1,16.191,294.333ZM6.142,274.978a3.167,3.167,0,0,0-3.164,3.164v10.05a3.167,3.167,0,0,0,3.164,3.164h10.05a3.167,3.167,0,0,0,3.164-3.164v-10.05a3.167,3.167,0,0,0-3.164-3.164Z" transform="translate(0 -246.689)" fill="#cbd3ff"/>
      </g>
      <circle id="Ellipse_376" data-name="Ellipse 376" cx="9.5" cy="9.5" r="9.5" transform="translate(971 3003)" fill="#cbd3ff"/>
      <rect id="Rectangle_2202" data-name="Rectangle 2202" width="19" height="19" rx="4" transform="translate(971 2977)" fill="#cbd3ff"/>
      <rect id="Rectangle_2203" data-name="Rectangle 2203" width="19" height="19" rx="4" transform="translate(945 2977)" fill="#cbd3ff"/>
      <rect id="Rectangle_2204" data-name="Rectangle 2204" width="19" height="19" rx="4" transform="translate(945 3002)" fill="#cbd3ff"/>
    </g>
  </g>
</svg>
