<svg xmlns="http://www.w3.org/2000/svg" width="47.644" height="47.644" viewBox="0 0 47.644 47.644">
  <g id="category" transform="translate(-943.915 -2975.356)">
    <g id="open-menu" transform="translate(943.915 2975.356)">
      <path id="Path_4765" data-name="Path 4765" d="M16.191,22.333H6.142A6.148,6.148,0,0,1,0,16.191V6.142A6.148,6.148,0,0,1,6.142,0h10.05a6.148,6.148,0,0,1,6.142,6.142v10.05A6.148,6.148,0,0,1,16.191,22.333ZM6.142,2.978A3.167,3.167,0,0,0,2.978,6.142v10.05a3.167,3.167,0,0,0,3.164,3.164h10.05a3.167,3.167,0,0,0,3.164-3.164V6.142a3.167,3.167,0,0,0-3.164-3.164Z" fill="#cbd3ff"/>
      <path id="Path_4766" data-name="Path 4766" d="M288.191,22.333h-10.05A6.148,6.148,0,0,1,272,16.191V6.142A6.148,6.148,0,0,1,278.142,0h10.05a6.148,6.148,0,0,1,6.142,6.142v10.05A6.148,6.148,0,0,1,288.191,22.333ZM278.142,2.978a3.167,3.167,0,0,0-3.164,3.164v10.05a3.167,3.167,0,0,0,3.164,3.164h10.05a3.167,3.167,0,0,0,3.164-3.164V6.142a3.167,3.167,0,0,0-3.164-3.164Z" transform="translate(-246.689)" fill="#cbd3ff"/>
      <path id="Path_4767" data-name="Path 4767" d="M283.166,294.333a11.166,11.166,0,1,1,11.166-11.166A11.179,11.179,0,0,1,283.166,294.333Zm0-19.355a8.189,8.189,0,1,0,8.189,8.189A8.2,8.2,0,0,0,283.166,274.978Z" transform="translate(-246.689 -246.689)" fill="#cbd3ff"/>
      <path id="Path_4768" data-name="Path 4768" d="M16.191,294.333H6.142A6.148,6.148,0,0,1,0,288.191v-10.05A6.148,6.148,0,0,1,6.142,272h10.05a6.148,6.148,0,0,1,6.142,6.142v10.05A6.148,6.148,0,0,1,16.191,294.333ZM6.142,274.978a3.167,3.167,0,0,0-3.164,3.164v10.05a3.167,3.167,0,0,0,3.164,3.164h10.05a3.167,3.167,0,0,0,3.164-3.164v-10.05a3.167,3.167,0,0,0-3.164-3.164Z" transform="translate(0 -246.689)" fill="#cbd3ff"/>
    </g>
    <circle id="Ellipse_376" data-name="Ellipse 376" cx="9.5" cy="9.5" r="9.5" transform="translate(971 3003)" fill="#cbd3ff"/>
    <rect id="Rectangle_2202" data-name="Rectangle 2202" width="19" height="19" rx="4" transform="translate(971 2977)" fill="#cbd3ff"/>
    <rect id="Rectangle_2203" data-name="Rectangle 2203" width="19" height="19" rx="4" transform="translate(945 2977)" fill="#cbd3ff"/>
    <rect id="Rectangle_2204" data-name="Rectangle 2204" width="19" height="19" rx="4" transform="translate(945 3002)" fill="#cbd3ff"/>
  </g>
</svg>
