<svg xmlns="http://www.w3.org/2000/svg" width="25.894" height="25.411" viewBox="0 0 25.894 25.411">
  <g id="Close" transform="translate(0 -0.86)">
    <g id="Group_2744" data-name="Group 2744" transform="translate(0 0.86)">
      <path id="Path_4725" data-name="Path 4725" d="M.6,25.669a2.053,2.053,0,0,0,2.9,0l9.441-9.441,9.441,9.441a2.054,2.054,0,0,0,2.9-2.9l-9.441-9.441,8.957-8.957a2.054,2.054,0,0,0-2.9-2.9l-8.957,8.957L3.99,1.462a2.054,2.054,0,0,0-2.9,2.9l8.957,8.957L.6,22.764A2.053,2.053,0,0,0,.6,25.669Z" transform="translate(0 -0.86)" fill="#fff"/>
    </g>
  </g>
</svg>
