<svg xmlns="http://www.w3.org/2000/svg" width="69.955" height="57.8" viewBox="0 0 69.955 57.8">
  <g id="customer-service-_1_" transform="translate(-8.198 460.799)">
    <path id="Path_4711" data-name="Path 4711" d="M40.457-460.672a27.264,27.264,0,0,0-21.463,14.76l-.734,1.453h-.72a10.183,10.183,0,0,0-7.606,4.375c-1.552,2.342-1.806,3.641-1.722,8.933.056,4.459.127,4.854,1.072,6.8a10.2,10.2,0,0,0,8.961,5.574c2.1,0,4.248-.677,4.826-1.538.536-.8.466-1.51-.353-3.189a22.976,22.976,0,0,1-1.5-16.623A23.137,23.137,0,0,1,35.97-455.38a22.567,22.567,0,0,1,19.869,2.7A23.078,23.078,0,0,1,65.7-437.614a29.637,29.637,0,0,1-.014,7.9,23.038,23.038,0,0,1-14.309,17.357A21.581,21.581,0,0,1,47.6-411.3c-.212,0-.367-.141-.494-.437a5.194,5.194,0,0,0-.917-1.214,5.875,5.875,0,0,0-9.455,1.58,5.874,5.874,0,0,0,4.3,8.283A6.09,6.09,0,0,0,47.3-406.3l.353-.691,1.242-.254a27.2,27.2,0,0,0,15.988-10.3l1.03-1.369,1.439.1a10.148,10.148,0,0,0,10.471-7.507,47.828,47.828,0,0,0,.127-9.977,10.138,10.138,0,0,0-3.119-5.6,10.226,10.226,0,0,0-6.04-2.554h-.734l-.536-1.1A27.176,27.176,0,0,0,40.457-460.672Z" transform="translate(0 0)" fill="#bde3e4"/>
    <path id="Path_4712" data-name="Path 4712" d="M146.435-394.546a18.007,18.007,0,0,0-11.007,5.5,18.068,18.068,0,0,0-4.544,8.82,23.356,23.356,0,0,0-.071,6.28,18.783,18.783,0,0,0,4.121,8.679l.4.423-.988,3.669a22.568,22.568,0,0,0-.9,4.078,2.3,2.3,0,0,0,1.115,1.552c1.03.48,1.27.4,5.391-1.976l3.838-2.187,1.171.254a21.717,21.717,0,0,0,6.759,0,17.858,17.858,0,0,0,9.017-4.784,18.275,18.275,0,0,0,5.108-9.709,23.355,23.355,0,0,0-.071-6.28,17.973,17.973,0,0,0-8.424-11.938A18.566,18.566,0,0,0,146.435-394.546Zm-4.248,15.8a2.084,2.084,0,0,1-.931,3.951,2.067,2.067,0,0,1-1.58-3.4A1.914,1.914,0,0,1,142.187-378.741Zm7.253.113a2.077,2.077,0,0,1,.776,2.653,2.132,2.132,0,0,1-3.528.409,1.98,1.98,0,0,1,.042-2.625A2,2,0,0,1,149.441-378.628Zm7.056-.014a2.068,2.068,0,0,1-.818,3.81,2.113,2.113,0,0,1-2.357-2.554,2.7,2.7,0,0,1,1.284-1.439A2.132,2.132,0,0,1,156.5-378.642Z" transform="translate(-105.159 -56.827)" fill="#bde3e4"/>
  </g>
</svg>
