<svg id="Detials" xmlns="http://www.w3.org/2000/svg" width="34.028" height="34.028" viewBox="0 0 34.028 34.028">
  <g id="Group_2752" data-name="Group 2752">
    <g id="Group_2751" data-name="Group 2751">
      <path id="Path_4754" data-name="Path 4754" d="M17.014,0A17.014,17.014,0,1,0,34.028,17.014,17,17,0,0,0,17.014,0Zm0,31.76A14.746,14.746,0,1,1,31.76,17.014,14.762,14.762,0,0,1,17.014,31.76Z" fill="#0ba6ab"/>
    </g>
  </g>
  <g id="Group_2754" data-name="Group 2754" transform="translate(15.88 13.942)">
    <g id="Group_2753" data-name="Group 2753">
      <path id="Path_4755" data-name="Path 4755" d="M240.064,209.777a1.134,1.134,0,0,0-1.134,1.134v9.568a1.134,1.134,0,1,0,2.269,0v-9.568A1.134,1.134,0,0,0,240.064,209.777Z" transform="translate(-238.93 -209.777)" fill="#0ba6ab"/>
    </g>
  </g>
  <g id="Group_2756" data-name="Group 2756" transform="translate(14.746 8.249)">
    <g id="Group_2755" data-name="Group 2755">
      <path id="Path_4756" data-name="Path 4756" d="M224.136,124.122a2.269,2.269,0,1,0,2.269,2.269A2.271,2.271,0,0,0,224.136,124.122Z" transform="translate(-221.867 -124.122)" fill="#0ba6ab"/>
    </g>
  </g>
</svg>
