<svg xmlns="http://www.w3.org/2000/svg" width="34.028" height="34.028" viewBox="0 0 34.028 34.028">
  <g id="Dollar" transform="translate(0 0)">
    <path id="Path_4757" data-name="Path 4757" d="M17.014,34.028A17.014,17.014,0,0,1,4.983,4.983,17.014,17.014,0,0,1,29.045,29.045,16.9,16.9,0,0,1,17.014,34.028Zm0-31.9A14.887,14.887,0,1,0,31.9,17.014,14.9,14.9,0,0,0,17.014,2.127Z" transform="translate(0 0)" fill="#0ba6ab"/>
    <path id="Path_4758" data-name="Path 4758" d="M188.785,105.57a2.658,2.658,0,1,1,2.658-2.658,1.063,1.063,0,0,0,2.127,0,4.793,4.793,0,0,0-3.722-4.665V97.063a1.063,1.063,0,1,0-2.127,0v1.184a4.785,4.785,0,0,0,1.063,9.45,2.658,2.658,0,1,1-2.658,2.658,1.063,1.063,0,1,0-2.127,0,4.793,4.793,0,0,0,3.722,4.665V116.2a1.063,1.063,0,1,0,2.127,0V115.02a4.785,4.785,0,0,0-1.063-9.45Z" transform="translate(-171.771 -89.62)" fill="#0ba6ab"/>
  </g>
</svg>
