<svg xmlns="http://www.w3.org/2000/svg" width="44" height="44" viewBox="0 0 44 44">
  <g id="Edit-yellow" transform="translate(-57 -646)">
    <rect id="Edit-yellow-2" data-name="Edit-yellow" width="44" height="44" rx="22" transform="translate(57 646)" fill="#fff"/>
    <g id="pencil_2_" data-name="pencil (2)" transform="translate(68.114 1168.935)">
      <path id="Path_4747" data-name="Path 4747" d="M349.573-511.758c-.578.123-.74.242-1.8,1.289l-.974.965,2.356,2.348,2.352,2.348.919-.919c.987-.987,1.161-1.216,1.318-1.731a1.872,1.872,0,0,0,.072-.766c-.034-.876-.179-1.123-1.37-2.305-.94-.936-1.114-1.059-1.71-1.212A2.507,2.507,0,0,0,349.573-511.758Z" transform="translate(-332.05 0)" fill="#fcdc0d"/>
      <path id="Path_4748" data-name="Path 4748" d="M7.388-419.969l-6.035,6.035-.676,2.7c-.391,1.574-.676,2.782-.676,2.9a.41.41,0,0,0,.455.455c.119,0,1.327-.285,2.9-.676l2.7-.676,6.035-6.035c3.317-3.317,6.031-6.048,6.031-6.074,0-.055-4.6-4.657-4.657-4.657C13.436-426,10.705-423.286,7.388-419.969Z" transform="translate(0 -82.168)" fill="#fcdc0d"/>
    </g>
  </g>
</svg>
