<svg id="Exit" xmlns="http://www.w3.org/2000/svg" width="54.873" height="54.873" viewBox="0 0 54.873 54.873">
  <path id="Path_1564" data-name="Path 1564" d="M23.436,211.43H1.715a1.715,1.715,0,1,1,0-3.43H23.436a1.715,1.715,0,1,1,0,3.43Zm0,0" transform="translate(0 -185.708)" fill="#0f8096"/>
  <path id="Path_1565" data-name="Path 1565" d="M124.386,148.563a1.716,1.716,0,0,1-1.212-2.929l7.362-7.362-7.362-7.36a1.715,1.715,0,0,1,2.426-2.426l8.574,8.574a1.716,1.716,0,0,1,0,2.426l-8.574,8.574A1.712,1.712,0,0,1,124.386,148.563Zm0,0" transform="translate(-109.525 -114.268)" fill="#0f8096"/>
  <path id="Path_1566" data-name="Path 1566" d="M303.24,54.947a4.577,4.577,0,0,1-4.572-4.573V9.219a4.6,4.6,0,0,1,3.1-4.342L315.5.3a4.621,4.621,0,0,1,6.031,4.349V45.8a4.6,4.6,0,0,1-3.093,4.339L304.7,54.723a4.784,4.784,0,0,1-1.456.224ZM316.959,3.5a1.345,1.345,0,0,0-.409.059L302.87,8.124a1.179,1.179,0,0,0-.773,1.1V50.374a1.2,1.2,0,0,0,1.552,1.084L317.329,46.9a1.183,1.183,0,0,0,.773-1.1V4.647A1.145,1.145,0,0,0,316.959,3.5Zm0,0" transform="translate(-266.659 -0.074)" fill="#0f8096"/>
  <path id="Path_1567" data-name="Path 1567" d="M172.383,11.432a1.715,1.715,0,0,1-1.715-1.715V6.288A6.293,6.293,0,0,1,176.955,0h25.722a1.715,1.715,0,1,1,0,3.43H176.955A2.862,2.862,0,0,0,174.1,6.288v3.43A1.715,1.715,0,0,1,172.383,11.432Zm0,0" transform="translate(-152.377)" fill="#0f8096"/>
  <path id="Path_1568" data-name="Path 1568" d="M186.1,352.764h-9.146a6.293,6.293,0,0,1-6.287-6.288v-3.43a1.715,1.715,0,1,1,3.43,0v3.43a2.862,2.862,0,0,0,2.858,2.858H186.1a1.715,1.715,0,0,1,0,3.43Zm0,0" transform="translate(-152.377 -304.75)" fill="#0f8096"/>
</svg>
