<svg xmlns="http://www.w3.org/2000/svg" width="57.717" height="57.8" viewBox="0 0 57.717 57.8">
  <g id="home-_4_" transform="translate(-43.5 469.098)">
    <path id="Path_4713" data-name="Path 4713" d="M69.469-468.813a14.621,14.621,0,0,0-4.5,1.818c-.923.583-16.593,13.432-17.855,14.64a13.051,13.051,0,0,0-3.3,5.59l-.312,1.085v12.211c0,11.56.014,12.265.258,13.161a11.953,11.953,0,0,0,8.67,8.751c1.1.258,1.533.285,5.495.244l4.3-.041.909-.434a5.663,5.663,0,0,0,2.795-2.741l.5-1.018.068-6.105c.081-5.834.095-6.16.366-6.906a9.784,9.784,0,0,1,.638-1.357,7.24,7.24,0,0,1,2.619-2.374,4.034,4.034,0,0,1,2.212-.366,4.034,4.034,0,0,1,2.212.366,7.307,7.307,0,0,1,2.632,2.388,8.288,8.288,0,0,1,.624,1.425c.271.787.285,1.235.353,6.892l.081,6.038.5,1.018a5.663,5.663,0,0,0,2.795,2.741l.909.434,4.3.041c3.962.041,4.4.014,5.495-.244a11.665,11.665,0,0,0,8.086-7.082c.882-2.2.828-1.33.882-14.273.041-13.011.041-12.971-.814-15.182a13.869,13.869,0,0,0-2.781-4.192c-1.452-1.411-16.919-14.1-18.018-14.775A14.191,14.191,0,0,0,69.469-468.813Z" transform="translate(0)" fill="#bde3e4"/>
  </g>
</svg>
