<svg id="information" xmlns="http://www.w3.org/2000/svg" width="52.909" height="52.909" viewBox="0 0 52.909 52.909">
  <g id="Group_2760" data-name="Group 2760">
    <g id="Group_2759" data-name="Group 2759">
      <circle id="Ellipse_374" data-name="Ellipse 374" cx="2.583" cy="2.583" r="2.583" transform="translate(23.871 36.53)" fill="#0ba6ab"/>
      <path id="Path_4759" data-name="Path 4759" d="M26.454,0A26.454,26.454,0,1,0,52.909,26.454,26.44,26.44,0,0,0,26.454,0Zm0,48.775A22.321,22.321,0,1,1,48.775,26.454,22.309,22.309,0,0,1,26.454,48.775Z" fill="#0ba6ab"/>
      <path id="Path_4760" data-name="Path 4760" d="M184.267,128.5A8.276,8.276,0,0,0,176,136.767a2.067,2.067,0,0,0,4.134,0,4.134,4.134,0,1,1,4.134,4.133,2.067,2.067,0,0,0-2.067,2.067v5.167a2.067,2.067,0,0,0,4.134,0v-3.362a8.268,8.268,0,0,0-2.067-16.272Z" transform="translate(-157.813 -115.221)" fill="#0ba6ab"/>
    </g>
  </g>
</svg>
