<svg xmlns="http://www.w3.org/2000/svg" width="12.221" height="20.69" viewBox="0 0 12.221 20.69">
  <g id="Left-arrow" transform="translate(134.919 -10) rotate(90)">
    <g id="Group_249" data-name="Group 249" transform="translate(10 122.698)">
      <path id="Path_352" data-name="Path 352" d="M20.359,101.719l-.678-.682a1.134,1.134,0,0,0-1.6,0l-7.731,7.731-7.74-7.74a1.135,1.135,0,0,0-1.6,0l-.678.678a1.133,1.133,0,0,0,0,1.6l9.215,9.248a1.157,1.157,0,0,0,.8.363h0a1.157,1.157,0,0,0,.8-.363l9.207-9.223a1.143,1.143,0,0,0,.331-.808A1.132,1.132,0,0,0,20.359,101.719Z" transform="translate(0 -100.698)" fill="#0ba6ab"/>
    </g>
  </g>
</svg>
