<svg xmlns="http://www.w3.org/2000/svg" width="54.592" height="64.538" viewBox="0 0 54.592 64.538">
  <g id="location" transform="translate(-39.451)">
    <g id="Group_2731" data-name="Group 2731" transform="translate(39.451)">
      <g id="Group_2730" data-name="Group 2730" transform="translate(0)">
        <path id="Path_4714" data-name="Path 4714" d="M86.049,7.995a27.3,27.3,0,0,0-46.6,19.3c0,14.749,13.946,27.017,21.438,33.608,1.041.916,1.94,1.707,2.657,2.376a4.7,4.7,0,0,0,6.4,0c.716-.669,1.615-1.46,2.657-2.376C80.1,54.313,94.043,42.046,94.043,27.3A27.118,27.118,0,0,0,86.049,7.995ZM70.108,58.066c-1.064.936-1.983,1.744-2.74,2.452a.912.912,0,0,1-1.241,0c-.757-.708-1.676-1.516-2.74-2.452-7.044-6.2-20.155-17.73-20.155-30.769a23.516,23.516,0,0,1,47.031,0C90.263,40.336,77.152,51.87,70.108,58.066Z" transform="translate(-39.451 0)" fill="#0ba6ab"/>
      </g>
    </g>
    <g id="Group_2733" data-name="Group 2733" transform="translate(54.718 14.236)">
      <g id="Group_2732" data-name="Group 2732" transform="translate(0)">
        <path id="Path_4715" data-name="Path 4715" d="M172.6,112.938a12.029,12.029,0,1,0,12.029,12.029A12.043,12.043,0,0,0,172.6,112.938Zm0,20.277a8.249,8.249,0,1,1,8.248-8.249A8.258,8.258,0,0,1,172.6,133.215Z" transform="translate(-160.57 -112.938)" fill="#0ba6ab"/>
      </g>
    </g>
  </g>
</svg>
