<svg id="minus_-button" data-name="minus -button" xmlns="http://www.w3.org/2000/svg" width="62.371" height="62.454" viewBox="0 0 62.371 62.454">
  <path id="Path_531" data-name="Path 531" d="M55.865,57.185c-9.557,7.8-39.4,7.8-48.758,0-9.557-7.8-8.581-41.152,0-49.928s40.176-8.776,48.758,0S65.422,49.384,55.865,57.185Z" transform="translate(-0.301 -0.583)" fill="#cf0404"/>
  <g id="Group_214" data-name="Group 214" transform="translate(0.029 0)" opacity="0.2">
    <path id="Path_532" data-name="Path 532" d="M31.861,42.951C23.28,49.777,13.724,53.288,4.752,53.483-1.879,42.171-.514,14.672,7.288,6.675c7.021-7.216,29.06-8.581,41.737-4.1C52.145,15.452,45.709,31.834,31.861,42.951Z" transform="translate(-0.509 0)" fill="#fff"/>
  </g>
  <path id="Path_533" data-name="Path 533" d="M129.66,205.787a3.5,3.5,0,0,1-3.511,3.511H96.115a3.511,3.511,0,1,1,0-7.021h30.23A3.46,3.46,0,0,1,129.66,205.787Z" transform="translate(-79.946 -174.538)" fill="#fff"/>
</svg>
