<svg xmlns="http://www.w3.org/2000/svg" width="72.6" height="72.602" viewBox="0 0 72.6 72.602">
  <g id="money" transform="translate(-6.007)">
    <g id="Group_2710" data-name="Group 2710" transform="translate(9.649 64.094)">
      <g id="Group_2709" data-name="Group 2709">
        <path id="Path_2554" data-name="Path 2554" d="M70.423,452.416a1.417,1.417,0,1,0,.416,1A1.428,1.428,0,0,0,70.423,452.416Z" transform="translate(-68.003 -452.001)" fill="#fff"/>
      </g>
    </g>
    <g id="Group_2712" data-name="Group 2712" transform="translate(64.164 25.525)">
      <g id="Group_2711" data-name="Group 2711">
        <path id="Path_2555" data-name="Path 2555" d="M454.875,180.423a1.414,1.414,0,1,0,.417,1A1.426,1.426,0,0,0,454.875,180.423Z" transform="translate(-452.454 -180.008)" fill="#fff"/>
      </g>
    </g>
    <g id="Group_2714" data-name="Group 2714" transform="translate(6.007)">
      <g id="Group_2713" data-name="Group 2713" transform="translate(0)">
        <path id="Path_2556" data-name="Path 2556" d="M72.192.415a1.419,1.419,0,0,0-1-.415L36.307,0A1.418,1.418,0,0,0,34.889,1.42V5.475l-13.441,3.6a1.418,1.418,0,0,0-1,1.737l6.966,26-6.026,6.026a4.252,4.252,0,0,0-3.512-1.856H4.261A4.259,4.259,0,0,0,.007,45.235V68.348A4.259,4.259,0,0,0,4.261,72.6H17.873A4.261,4.261,0,0,0,22,69.372l1.686,1.47a7.144,7.144,0,0,0,4.7,1.76h42.8a1.418,1.418,0,0,0,1.418-1.418V1.418A1.419,1.419,0,0,0,72.192.415Zm-52.9,67.933a1.42,1.42,0,0,1-1.418,1.418H4.261a1.42,1.42,0,0,1-1.418-1.418V45.235a1.42,1.42,0,0,1,1.418-1.418H9.649V60.152a1.418,1.418,0,0,0,2.836,0V43.817h5.388a1.42,1.42,0,0,1,1.418,1.418V68.348Zm4.26-56.9L34.889,8.411v5.254l-.95.255a1.418,1.418,0,0,0-1,1.737,3.822,3.822,0,0,1-2.7,4.676,1.418,1.418,0,0,0-1,1.739l5.527,20.467H31.915L30.449,36.8a1.416,1.416,0,0,0-.238-.5Zm11.338,8.719V32.133L32.3,22.557A6.643,6.643,0,0,0,34.889,20.168Zm20.372,49.6H28.384A4.309,4.309,0,0,1,25.552,68.7l-3.424-2.986V46.106l6.191-6.191,1.123,4.393a1.418,1.418,0,0,0,1.374,1.067l27.879,0a1.985,1.985,0,0,1,0,3.97H44.408a1.418,1.418,0,1,0,0,2.836H63.131a1.985,1.985,0,0,1,0,3.97H44.408a1.418,1.418,0,0,0,0,2.836H60.1a1.985,1.985,0,1,1,0,3.97H44.408a1.418,1.418,0,0,0,0,2.836H55.26a1.985,1.985,0,1,1,0,3.97Zm14.511,0H59.652a4.8,4.8,0,0,0,0-3.97H60.1a4.818,4.818,0,0,0,4.309-6.979A4.817,4.817,0,0,0,67,51.3V33.324a1.418,1.418,0,1,0-2.836,0V49.46a4.822,4.822,0,0,0-1.034-.113h-.047a4.818,4.818,0,0,0-4.392-6.806H56.413a6.786,6.786,0,1,0-5.332,0H43.331V15.579a6.675,6.675,0,0,0,5.084-5.084H59.081a6.675,6.675,0,0,0,5.084,5.084v4.409a1.418,1.418,0,1,0,2.836,0V14.313a1.418,1.418,0,0,0-1.418-1.418,3.822,3.822,0,0,1-3.818-3.818,1.418,1.418,0,0,0-1.418-1.418h-13.2A1.418,1.418,0,0,0,45.73,9.077a3.822,3.822,0,0,1-3.818,3.818,1.418,1.418,0,0,0-1.418,1.418V42.541h-2.77V2.838l32.046,0ZM53.748,40.251A3.95,3.95,0,1,1,57.7,36.3,3.955,3.955,0,0,1,53.748,40.251Z" transform="translate(-0.007)" fill="#fff"/>
      </g>
    </g>
  </g>
</svg>
