<svg xmlns="http://www.w3.org/2000/svg" width="54.606" height="40.897" viewBox="0 0 54.606 40.897">
  <g id="open-menu_1_" data-name="open-menu (1)" transform="translate(0 -64.267)">
    <path id="Path_240" data-name="Path 240" d="M49.58,64.267H5.025a5.027,5.027,0,0,0,0,10.054H49.58a5.027,5.027,0,0,0,0-10.054Z" transform="translate(0)" fill="#1565c0"/>
    <path id="Path_241" data-name="Path 241" d="M49.58,208.867H5.025a5.027,5.027,0,0,0,0,10.054H49.58a5.027,5.027,0,0,0,0-10.054Z" transform="translate(0 -129.178)" fill="#1565c0"/>
    <path id="Path_242" data-name="Path 242" d="M49.58,353.467H5.025a5.027,5.027,0,0,0,0,10.054H49.58a5.027,5.027,0,0,0,0-10.054Z" transform="translate(0 -258.356)" fill="#1565c0"/>
  </g>
</svg>
