<svg xmlns="http://www.w3.org/2000/svg" width="43.634" height="51.938" viewBox="0 0 43.634 51.938">
  <g id="Order-Wallet" transform="translate(0 0.001)">
    <path id="Path_411" data-name="Path 411" d="M250.111,39.149a.76.76,0,0,0-1.1.245c-.005.009-.011.017-.017.026a.773.773,0,0,1-1.075.19.761.761,0,0,0-1.06.187l-1.109,1.584a.761.761,0,1,0,1.246.873l.747-1.067a2.3,2.3,0,0,0,2.038-.408l1.122.786a.761.761,0,1,0,.873-1.246Zm0,0" transform="translate(-220.7 -35.054)" fill="#0f8096"/>
    <path id="Path_412" data-name="Path 412" d="M357.269,97.427l-.747,1.067a.761.761,0,1,0,1.246.873l1.109-1.583a.761.761,0,0,0-.187-1.06.773.773,0,0,1-.189-1.075.275.275,0,0,1,.018-.024.762.762,0,0,0-.145-1.115l-1.669-1.169a.761.761,0,0,0-.873,1.247l1.122.785a2.3,2.3,0,0,0,.314,2.055Zm0,0" transform="translate(-319.445 -83.749)" fill="#0f8096"/>
    <path id="Path_413" data-name="Path 413" d="M308.075,289.862a1.286,1.286,0,0,1,.945.408.761.761,0,0,0,1.106-1.045,2.821,2.821,0,1,0-2.051,4.758,2.8,2.8,0,0,0,1.995-.826.761.761,0,0,0-1.076-1.076,1.3,1.3,0,1,1-.919-2.219Zm0,0" transform="translate(-274.288 -259.091)" fill="#0f8096"/>
    <path id="Path_414" data-name="Path 414" d="M40.561,26.711V20.617a3.757,3.757,0,0,0-3.752-3.752H32.771a4.984,4.984,0,0,0-1.835-4.818,4.7,4.7,0,0,0-4.343-.421,8.36,8.36,0,0,0-3.986,3.144,9.129,9.129,0,0,0-1.1,2.095H16.553L27.2,1.66,41.974,12l-2.251,3.215a.761.761,0,1,0,1.246.873l2.454-3.5a1.169,1.169,0,0,0-.286-1.626L27.783.211A1.167,1.167,0,0,0,26.157.5l-3.522,5.03V2.493a1.169,1.169,0,0,0-1.168-1.168H3.219A1.169,1.169,0,0,0,2.051,2.493V6.658a.761.761,0,0,0,1.522,0V2.848h2.2V16.864H3.753c-.06,0-.12,0-.18,0V9.7a.761.761,0,1,0-1.522,0v7.571A3.757,3.757,0,0,0,0,20.617V43.523a3.757,3.757,0,0,0,3.752,3.752H9.433a.761.761,0,0,0,0-1.522H3.753a2.233,2.233,0,0,1-2.231-2.231V20.617a2.234,2.234,0,0,1,1.5-2.108l.057-.019a2.221,2.221,0,0,1,.672-.1H36.809a2.234,2.234,0,0,1,2.231,2.231v5.988H33.593a5.465,5.465,0,1,0,0,10.929H39.04v5.988a2.233,2.233,0,0,1-2.231,2.231H31a.761.761,0,0,0,0,1.522h5.813a3.757,3.757,0,0,0,3.753-3.752V37.429a3.915,3.915,0,0,0,3.006-3.8V30.514a3.916,3.916,0,0,0-3.006-3.8ZM23.854,15.644c1.735-2.478,4.521-3.532,6.21-2.35a3.575,3.575,0,0,1,1.173,3.571H23.151a7.774,7.774,0,0,1,.7-1.221ZM21.114,7.7,14.7,16.865H10.947V2.847H21.114ZM7.3,2.847H9.425V16.864H7.3ZM42.045,33.626a2.39,2.39,0,0,1-2.387,2.387H33.593a3.943,3.943,0,1,1,0-7.886h6.065a2.39,2.39,0,0,1,2.387,2.387Zm0,0" transform="translate(0 0)" fill="#0f8096"/>
    <path id="Path_415" data-name="Path 415" d="M118.5,330.777a9.192,9.192,0,1,0,9.192,9.192,9.2,9.2,0,0,0-9.192-9.192Zm0,16.862a7.67,7.67,0,1,1,7.67-7.67,7.679,7.679,0,0,1-7.67,7.67Zm0,0" transform="translate(-98.22 -297.223)" fill="#0f8096"/>
    <path id="Path_416" data-name="Path 416" d="M175.2,375.692h-1.3a.693.693,0,1,1,0-1.387h2.483a.761.761,0,1,0,0-1.522h-.934v-.643a.761.761,0,0,0-1.522,0v.643H173.9a2.215,2.215,0,1,0,0,4.43h1.3a.693.693,0,0,1,0,1.387h-2.483a.761.761,0,1,0,0,1.522h1.213v.643a.761.761,0,0,0,1.522,0v-.657a2.215,2.215,0,0,0-.252-4.415Zm0,0" transform="translate(-154.27 -333.707)" fill="#0f8096"/>
  </g>
</svg>
