<svg xmlns="http://www.w3.org/2000/svg" width="43.35" height="57.8" viewBox="0 0 43.35 57.8">
  <g id="list_1_" data-name="list (1)" transform="translate(-64)">
    <g id="Group_2726" data-name="Group 2726" transform="translate(74.838)">
      <g id="Group_2725" data-name="Group 2725">
        <path id="Path_4709" data-name="Path 4709" d="M179.869,3.613h-3.923a5.42,5.42,0,0,0-10.22,0h-3.92A1.807,1.807,0,0,0,160,5.419v7.225a1.807,1.807,0,0,0,1.806,1.806h18.063a1.807,1.807,0,0,0,1.806-1.806V5.419A1.807,1.807,0,0,0,179.869,3.613Z" transform="translate(-160)" fill="#bde3e4"/>
      </g>
    </g>
    <g id="Group_2728" data-name="Group 2728" transform="translate(64 7.225)">
      <g id="Group_2727" data-name="Group 2727">
        <path id="Path_4710" data-name="Path 4710" d="M103.738,64h-3.613v5.419a5.425,5.425,0,0,1-5.419,5.419H76.644a5.425,5.425,0,0,1-5.419-5.419V64H67.613A3.618,3.618,0,0,0,64,67.613v43.35a3.573,3.573,0,0,0,3.613,3.613h36.125a3.573,3.573,0,0,0,3.612-3.613V67.613A3.573,3.573,0,0,0,103.738,64ZM85.148,95.985l-7.225,7.225a1.814,1.814,0,0,1-2.558,0L71.752,99.6a1.806,1.806,0,0,1,2.554-2.554l2.337,2.334,5.946-5.946a1.807,1.807,0,0,1,2.558,2.554Zm0-14.45L77.923,88.76a1.814,1.814,0,0,1-2.558,0l-3.613-3.612a1.806,1.806,0,0,1,2.554-2.554l2.337,2.334,5.946-5.946a1.807,1.807,0,0,1,2.558,2.554Zm13.171,18.59H91.094a1.806,1.806,0,0,1,0-3.613h7.225a1.806,1.806,0,0,1,0,3.613Zm0-14.45H91.094a1.806,1.806,0,0,1,0-3.613h7.225a1.806,1.806,0,0,1,0,3.613Z" transform="translate(-64 -64)" fill="#bde3e4"/>
      </g>
    </g>
  </g>
</svg>
