<svg xmlns="http://www.w3.org/2000/svg" width="35.195" height="47.638" viewBox="0 0 35.195 47.638">
  <g id="Order-loc" transform="translate(-48.08 -7.18)">
    <g id="Group_320" data-name="Group 320" transform="translate(48.08 7.18)">
      <g id="Group_319" data-name="Group 319" transform="translate(0)">
        <path id="Path_419" data-name="Path 419" d="M65.678,0a17.617,17.617,0,0,0-17.6,17.6,20.3,20.3,0,0,0,1.493,6.775,28.379,28.379,0,0,0,2.034,3.8L63.673,46.459a2.295,2.295,0,0,0,4.01,0L79.749,28.177a28.261,28.261,0,0,0,2.034-3.8A20.3,20.3,0,0,0,83.275,17.6,17.617,17.617,0,0,0,65.678,0Zm14.2,23.569a26,26,0,0,1-1.854,3.468L65.954,45.32c-.238.361-.314.361-.552,0L53.335,27.037a26.015,26.015,0,0,1-1.854-3.469A18.43,18.43,0,0,1,50.15,17.6a15.527,15.527,0,0,1,31.055,0A18.444,18.444,0,0,1,79.875,23.569Z" transform="translate(-48.08)" fill="#0f8096"/>
        <path id="Path_420" data-name="Path 420" d="M121.4,64.008a9.316,9.316,0,1,0,9.316,9.316A9.327,9.327,0,0,0,121.4,64.008Zm0,16.562a7.246,7.246,0,1,1,7.246-7.246A7.255,7.255,0,0,1,121.4,80.57Z" transform="translate(-103.799 -55.726)" fill="#0f8096"/>
      </g>
    </g>
  </g>
</svg>
