<svg xmlns="http://www.w3.org/2000/svg" width="36.867" height="52.666" viewBox="0 0 36.867 52.666">
  <g id="order-price" transform="translate(-76.8)">
    <g id="Group_328" data-name="Group 328" transform="translate(76.8)">
      <g id="Group_327" data-name="Group 327" transform="translate(0)">
        <path id="Path_1287" data-name="Path 1287" d="M98.744,0H81.189A4.394,4.394,0,0,0,76.8,4.389v31.6a4.394,4.394,0,0,0,4.389,4.389h15.8V38.622h-15.8a2.637,2.637,0,0,1-2.633-2.633V4.389a2.637,2.637,0,0,1,2.633-2.633H98.744a2.637,2.637,0,0,1,2.633,2.633V29.844h1.755V4.389A4.394,4.394,0,0,0,98.744,0Z" transform="translate(-76.8)" fill="#0f8096"/>
      </g>
    </g>
    <g id="Group_330" data-name="Group 330" transform="translate(89.089 12.619)">
      <g id="Group_329" data-name="Group 329" transform="translate(0)">
        <path id="Path_1288" data-name="Path 1288" d="M218.73,133.437l-8.611-10.762-1.372,1.1,8.611,10.761a7.922,7.922,0,0,1,1.731,4.937v21.5H206.247a8.234,8.234,0,0,1-8.225-8.225v-3.186h-1.756v3.186a9.992,9.992,0,0,0,9.98,9.98h13.72a.877.877,0,0,0,.878-.878V139.471A9.692,9.692,0,0,0,218.73,133.437Z" transform="translate(-196.267 -122.675)" fill="#0f8096"/>
      </g>
    </g>
    <g id="Group_332" data-name="Group 332" transform="translate(87.588 18.943)">
      <g id="Group_331" data-name="Group 331">
        <path id="Path_1289" data-name="Path 1289" d="M185.8,185.917a2.291,2.291,0,0,1,1.612.721l11.8,12.535,1.279-1.2-11.8-12.536a4.037,4.037,0,0,0-2.839-1.272,3.986,3.986,0,0,0-2.9,1.1c-.01.01-.08.076-.089.086a4.052,4.052,0,0,0-.233,5.5l7.56,8.927v2.716a11.744,11.744,0,0,0,7.592,10.952l.616-1.644a9.982,9.982,0,0,1-6.453-9.308V199.45a.881.881,0,0,0-.208-.568l-7.766-9.17a2.317,2.317,0,0,1,.176-3.165A2.349,2.349,0,0,1,185.8,185.917Z" transform="translate(-181.674 -184.16)" fill="#0f8096"/>
      </g>
    </g>
    <g id="Group_334" data-name="Group 334" transform="translate(96.111 1.756)">
      <g id="Group_333" data-name="Group 333">
        <rect id="Rectangle_224" data-name="Rectangle 224" width="1.756" height="21.944" fill="#0f8096"/>
      </g>
    </g>
    <g id="Group_336" data-name="Group 336" transform="translate(91.722 28.966)">
      <g id="Group_335" data-name="Group 335">
        <rect id="Rectangle_225" data-name="Rectangle 225" width="1.756" height="10.533" fill="#0f8096"/>
      </g>
    </g>
    <g id="Group_338" data-name="Group 338" transform="translate(91.722 0.878)">
      <g id="Group_337" data-name="Group 337">
        <rect id="Rectangle_226" data-name="Rectangle 226" width="1.756" height="19.311" fill="#0f8096"/>
      </g>
    </g>
    <g id="Group_340" data-name="Group 340" transform="translate(81.189 4.389)">
      <g id="Group_339" data-name="Group 339" transform="translate(0)">
        <rect id="Rectangle_227" data-name="Rectangle 227" width="1.756" height="11.411" fill="#0f8096"/>
      </g>
    </g>
    <g id="Group_342" data-name="Group 342" transform="translate(85.578 4.389)">
      <g id="Group_341" data-name="Group 341" transform="translate(0)">
        <rect id="Rectangle_228" data-name="Rectangle 228" width="1.756" height="7.022" fill="#0f8096"/>
      </g>
    </g>
    <g id="Group_344" data-name="Group 344" transform="translate(81.189 28.966)">
      <g id="Group_343" data-name="Group 343" transform="translate(0)">
        <path id="Path_1290" data-name="Path 1290" d="M125.611,281.6h-5.267a.878.878,0,0,0-.878.878v5.267a.878.878,0,0,0,.878.878h5.267a.877.877,0,0,0,.878-.878v-5.267A.877.877,0,0,0,125.611,281.6Zm-.878,5.267h-3.511v-3.511h3.511Z" transform="translate(-119.467 -281.6)" fill="#0f8096"/>
      </g>
    </g>
  </g>
</svg>
