<svg xmlns="http://www.w3.org/2000/svg" width="47.738" height="47.808" viewBox="0 0 47.738 47.808">
  <g id="phone" transform="translate(-0.344 0)">
    <g id="Group_293" data-name="Group 293" transform="translate(0.344 0)">
      <path id="Path_1777" data-name="Path 1777" d="M38.093,54.256a4.7,4.7,0,0,0-3.41-1.564,4.862,4.862,0,0,0-3.451,1.554l-3.188,3.178c-.262-.141-.525-.272-.777-.4-.363-.182-.706-.353-1-.535a34.654,34.654,0,0,1-8.3-7.568,20.445,20.445,0,0,1-2.724-4.3c.827-.757,1.594-1.544,2.341-2.3.283-.283.565-.575.848-.858a4.629,4.629,0,0,0,0-6.982l-2.755-2.755c-.313-.313-.636-.636-.938-.959-.605-.626-1.241-1.271-1.9-1.877a4.776,4.776,0,0,0-3.38-1.483,4.942,4.942,0,0,0-3.431,1.483l-.02.02L2.576,32.37a7.382,7.382,0,0,0-2.19,4.692,17.688,17.688,0,0,0,1.292,7.487A43.445,43.445,0,0,0,9.4,57.424,47.483,47.483,0,0,0,25.208,69.8a24.635,24.635,0,0,0,8.879,2.623c.212.01.434.02.636.02a7.6,7.6,0,0,0,5.822-2.5c.01-.02.03-.03.04-.05a22.937,22.937,0,0,1,1.766-1.826c.434-.414.878-.848,1.312-1.3a5.034,5.034,0,0,0,1.524-3.491,4.849,4.849,0,0,0-1.554-3.461Zm3.612,10.625c-.01,0-.01.01,0,0-.394.424-.8.807-1.231,1.231a26.53,26.53,0,0,0-1.947,2.018,4.864,4.864,0,0,1-3.794,1.6c-.151,0-.313,0-.464-.01a21.884,21.884,0,0,1-7.87-2.361A44.821,44.821,0,0,1,11.505,55.7,40.964,40.964,0,0,1,4.24,43.6a14.407,14.407,0,0,1-1.13-6.316,4.632,4.632,0,0,1,1.392-3l3.441-3.441a2.294,2.294,0,0,1,1.534-.716,2.158,2.158,0,0,1,1.473.706l.03.03c.615.575,1.2,1.17,1.816,1.806.313.323.636.646.959.979l2.755,2.755a1.926,1.926,0,0,1,0,3.128c-.293.293-.575.585-.868.868-.848.868-1.655,1.675-2.533,2.462-.02.02-.04.03-.05.05a2.058,2.058,0,0,0-.525,2.29l.03.091a22.115,22.115,0,0,0,3.259,5.318l.01.01a37.034,37.034,0,0,0,8.96,8.153,13.777,13.777,0,0,0,1.241.676c.363.182.706.353,1,.535.04.02.081.05.121.071a2.187,2.187,0,0,0,1,.252,2.157,2.157,0,0,0,1.534-.7l3.451-3.451a2.283,2.283,0,0,1,1.524-.757,2.055,2.055,0,0,1,1.453.737l.02.02,5.56,5.56A2,2,0,0,1,41.705,64.881Z" transform="translate(-0.344 -24.641)" fill="#fff"/>
      <path id="Path_1778" data-name="Path 1778" d="M246.065,88.627A12.986,12.986,0,0,1,256.639,99.2a1.354,1.354,0,0,0,1.342,1.13,1.8,1.8,0,0,0,.232-.02,1.363,1.363,0,0,0,1.12-1.574,15.7,15.7,0,0,0-12.794-12.794,1.369,1.369,0,0,0-1.574,1.11A1.347,1.347,0,0,0,246.065,88.627Z" transform="translate(-220.263 -77.255)" fill="#fff"/>
      <path id="Path_1779" data-name="Path 1779" d="M271.426,21.089A25.856,25.856,0,0,0,250.358.021a1.36,1.36,0,1,0-.444,2.684,23.094,23.094,0,0,1,18.828,18.828,1.354,1.354,0,0,0,1.342,1.13,1.8,1.8,0,0,0,.232-.02A1.337,1.337,0,0,0,271.426,21.089Z" transform="translate(-223.708 0)" fill="#fff"/>
    </g>
  </g>
</svg>
