<svg id="plus-button" xmlns="http://www.w3.org/2000/svg" width="62.371" height="62.454" viewBox="0 0 62.371 62.454">
  <path id="Path_534" data-name="Path 534" d="M55.866,57.185c-9.557,7.8-39.4,7.8-48.758,0-9.557-7.8-8.581-41.152,0-49.928s40.177-8.776,48.758,0S65.422,49.384,55.866,57.185Z" transform="translate(-0.301 -0.583)" fill="#2ae78b"/>
  <g id="Group_215" data-name="Group 215" transform="translate(0.029 0)" opacity="0.2">
    <path id="Path_535" data-name="Path 535" d="M31.862,42.951C23.28,49.777,13.724,53.288,4.752,53.483-1.879,42.171-.514,14.672,7.288,6.675c7.021-7.216,29.06-8.581,41.737-4.1C52.145,15.452,45.709,31.834,31.862,42.951Z" transform="translate(-0.509 0)" fill="#fff"/>
  </g>
  <path id="Path_536" data-name="Path 536" d="M127.206,110.066a3.5,3.5,0,0,1-3.511,3.511h-11.7v11.7a3.511,3.511,0,0,1-7.021,0v-11.7h-11.7a3.511,3.511,0,1,1,0-7.021h11.7v-11.7a3.511,3.511,0,0,1,7.021,0v11.7h11.7A3.5,3.5,0,0,1,127.206,110.066Z" transform="translate(-77.492 -78.817)" fill="#fff"/>
</svg>
