<svg id="search" xmlns="http://www.w3.org/2000/svg" width="82.371" height="82.371" viewBox="0 0 82.371 82.371">
  <g id="Group_2" data-name="Group 2" transform="translate(12.384 17.854)">
    <g id="Group_1" data-name="Group 1">
      <path id="Path_1" data-name="Path 1" d="M87.337,111.867a3.042,3.042,0,0,0-4.3,0,20.8,20.8,0,0,0-5.949,16.859,3.044,3.044,0,0,0,3.025,2.741c.1,0,.2-.005.305-.015a3.044,3.044,0,0,0,2.726-3.331,14.734,14.734,0,0,1,4.2-11.95A3.042,3.042,0,0,0,87.337,111.867Z" transform="translate(-76.978 -110.975)" fill="#2d3d9a"/>
    </g>
  </g>
  <g id="Group_4" data-name="Group 4">
    <g id="Group_3" data-name="Group 3">
      <path id="Path_2" data-name="Path 2" d="M34.795,0A34.795,34.795,0,1,0,69.589,34.795,34.834,34.834,0,0,0,34.795,0Zm0,63.5A28.708,28.708,0,1,1,63.5,34.795,28.74,28.74,0,0,1,34.795,63.5Z" fill="#2d3d9a"/>
    </g>
  </g>
  <g id="Group_6" data-name="Group 6" transform="translate(54.17 54.17)">
    <g id="Group_5" data-name="Group 5">
      <path id="Path_3" data-name="Path 3" d="M364.018,359.715,341.9,337.6a3.043,3.043,0,0,0-4.3,4.3l22.114,22.114a3.043,3.043,0,0,0,4.3-4.3Z" transform="translate(-336.708 -336.71)" fill="#2d3d9a"/>
    </g>
  </g>
</svg>
