<svg xmlns="http://www.w3.org/2000/svg" width="52.909" height="62.041" viewBox="0 0 52.909 62.041">
  <g id="shield" transform="translate(-672.41 -276)">
    <g id="Group_2735" data-name="Group 2735" transform="translate(634.729 276)">
      <g id="Group_2734" data-name="Group 2734" transform="translate(37.681 0)">
        <path id="Path_4716" data-name="Path 4716" d="M89.63,10.713A103.2,103.2,0,0,1,64.8.181a1.3,1.3,0,0,0-1.327,0A100.376,100.376,0,0,1,38.641,10.713a1.3,1.3,0,0,0-.96,1.259V25.306A38.362,38.362,0,0,0,49.33,53.334c5.721,5.606,12.386,8.706,14.806,8.706s9.084-3.1,14.805-8.706A38.362,38.362,0,0,0,90.59,25.306V11.971A1.3,1.3,0,0,0,89.63,10.713ZM87.98,25.306A35.8,35.8,0,0,1,77.114,51.47c-5.626,5.513-11.642,7.961-12.979,7.961s-7.353-2.448-12.979-7.961A35.8,35.8,0,0,1,40.291,25.306V12.962A102.781,102.781,0,0,0,64.136,2.817,106.033,106.033,0,0,0,87.98,12.962Z" transform="translate(-37.681 0)" fill="#0ba6ab"/>
        <path id="Path_4717" data-name="Path 4717" d="M90.046,99.77a1.3,1.3,0,0,0-1.693-.736c-2.331.919-4.724,1.764-7.112,2.513a1.305,1.305,0,0,0-.915,1.245v5.04a1.305,1.305,0,0,0,2.61,0v-4.086c2.142-.693,4.282-1.46,6.373-2.284A1.3,1.3,0,0,0,90.046,99.77Z" transform="translate(-75.159 -86.954)" fill="#0ba6ab"/>
        <path id="Path_4718" data-name="Path 4718" d="M171.51,88.823a1.306,1.306,0,0,0,.523-.11l.024-.01A1.305,1.305,0,1,0,171,86.315l-.021.009a1.3,1.3,0,0,0,.528,2.5Z" transform="translate(-154.144 -75.759)" fill="#0ba6ab"/>
        <path id="Path_4719" data-name="Path 4719" d="M313.145,345.741a1.305,1.305,0,0,0-1.806.379,31.765,31.765,0,0,1-3.75,4.684,33.338,33.338,0,0,1-3.743,3.33,1.305,1.305,0,1,0,1.583,2.076,35.97,35.97,0,0,0,4.037-3.592,34.341,34.341,0,0,0,4.059-5.071A1.3,1.3,0,0,0,313.145,345.741Z" transform="translate(-271.141 -303.659)" fill="#0ba6ab"/>
        <path id="Path_4720" data-name="Path 4720" d="M277.29,432.145l-.075.044a1.3,1.3,0,1,0,1.307,2.259l.086-.051a1.3,1.3,0,1,0-1.319-2.252Z" transform="translate(-247.617 -379.623)" fill="#0ba6ab"/>
        <path id="Path_4721" data-name="Path 4721" d="M130.064,164.223a4.244,4.244,0,1,0-6,6l7.706,7.706a4.245,4.245,0,0,0,6,0l16.087-16.087a4.244,4.244,0,0,0-6-6l-13.086,13.086Zm19.637-6.535a1.634,1.634,0,1,1,2.31,2.31l-16.087,16.087a1.635,1.635,0,0,1-2.311,0l-7.706-7.706a1.634,1.634,0,0,1,2.31-2.311l5.628,5.628a1.305,1.305,0,0,0,1.845,0Z" transform="translate(-112.505 -135.866)" fill="#0ba6ab"/>
      </g>
    </g>
  </g>
</svg>
