<svg xmlns="http://www.w3.org/2000/svg" width="47.396" height="47.396" viewBox="0 0 47.396 47.396">
  <g id="transfer" transform="translate(0 0)">
    <g id="Group_2737" data-name="Group 2737" transform="translate(8.535 0)">
      <g id="Group_2736" data-name="Group 2736" transform="translate(0)">
        <path id="Path_4722" data-name="Path 4722" d="M186.264,22.815a1.977,1.977,0,0,0-1.767-1.092h-3.95V1.975a1.975,1.975,0,0,0-3.95,0V21.723h-3.95a1.974,1.974,0,0,0-1.58,3.16l5.924,7.9c.026.034.065.045.093.077a1.928,1.928,0,0,0,.456.381,2.033,2.033,0,0,0,.2.136,1.853,1.853,0,0,0,1.657,0,2,2,0,0,0,.2-.136,1.927,1.927,0,0,0,.456-.381c.026-.032.067-.043.093-.077l5.924-7.9A1.973,1.973,0,0,0,186.264,22.815Z" transform="translate(-170.674)" fill="#0ba6ab"/>
      </g>
    </g>
    <g id="Group_2739" data-name="Group 2739" transform="translate(0 29.622)">
      <g id="Group_2738" data-name="Group 2738">
        <path id="Path_4723" data-name="Path 4723" d="M45.421,320a1.974,1.974,0,0,0-1.975,1.975V327.9a5.932,5.932,0,0,1-5.924,5.924H9.874A5.932,5.932,0,0,1,3.95,327.9v-5.924a1.975,1.975,0,0,0-3.95,0V327.9a9.885,9.885,0,0,0,9.874,9.874H37.522A9.885,9.885,0,0,0,47.4,327.9v-5.924A1.974,1.974,0,0,0,45.421,320Z" transform="translate(0 -320)" fill="#0ba6ab"/>
      </g>
    </g>
    <g id="Group_2740" data-name="Group 2740" transform="translate(42.222 33.572) rotate(-180)">
      <g id="Group_2736-2" data-name="Group 2736">
        <path id="Path_4722-2" data-name="Path 4722" d="M15.591,22.815a1.977,1.977,0,0,0-1.767-1.092H9.873V1.975a1.975,1.975,0,0,0-3.95,0V21.723H1.974a1.974,1.974,0,0,0-1.58,3.16l5.924,7.9c.026.034.065.045.093.077a1.928,1.928,0,0,0,.456.381,2.033,2.033,0,0,0,.2.136,1.853,1.853,0,0,0,1.657,0,2,2,0,0,0,.2-.136,1.927,1.927,0,0,0,.456-.381c.026-.032.067-.043.093-.077l5.924-7.9A1.973,1.973,0,0,0,15.591,22.815Z" fill="#0ba6ab"/>
      </g>
    </g>
  </g>
</svg>
