<svg xmlns="http://www.w3.org/2000/svg" width="34.531" height="39.371" viewBox="0 0 34.531 39.371">
  <g id="Trashbin" transform="translate(-31.45 511.888)">
    <path id="Path_2501" data-name="Path 2501" d="M43.418-511.812a3.552,3.552,0,0,0-2.391,1.853,4.208,4.208,0,0,0-.384,1.991v.677l-3.745.023c-3.652.023-3.76.031-4.106.185a2.66,2.66,0,0,0-1.169,1.176,2.588,2.588,0,0,0,0,1.861,2.66,2.66,0,0,0,1.169,1.176l.354.161H64.286l.354-.161a2.66,2.66,0,0,0,1.169-1.176,2.588,2.588,0,0,0,0-1.861,2.66,2.66,0,0,0-1.169-1.176c-.346-.154-.454-.161-4.1-.185l-3.752-.023v-.677a8.144,8.144,0,0,0-.077-1.092,3.5,3.5,0,0,0-2.76-2.76C53.444-511.912,43.91-511.912,43.418-511.812Zm10.449,2.376c.461.238.615.6.615,1.461v.692H42.949v-.692c0-.846.154-1.223.6-1.453.277-.146.461-.154,5.152-.161C53.429-509.59,53.575-509.582,53.867-509.436Z" fill="#0ba6ab"/>
    <path id="Path_2502" data-name="Path 2502" d="M62.038-361.677c.023.185.477,5.59,1,12.018s1,11.98,1.046,12.341a3.482,3.482,0,0,0,2.637,3.037c.7.169,19.692.169,20.391,0a3.482,3.482,0,0,0,2.637-3.037c.046-.361.515-5.913,1.046-12.341s.977-11.833,1-12.018l.038-.323H62Zm8.627,2.2a1.307,1.307,0,0,1,.354.415c.092.2.246,2.337.707,9.788l.592,9.527-.161.331a1.1,1.1,0,0,1-1.576.461c-.584-.331-.507.3-1.161-10.242l-.592-9.527.161-.331A1.158,1.158,0,0,1,70.666-359.478Zm6.789-.061a1.03,1.03,0,0,1,.461.461c.154.3.154.431.154,9.842s0,9.542-.154,9.842a1.214,1.214,0,0,1-1,.615,1.214,1.214,0,0,1-1-.615c-.154-.3-.154-.431-.154-9.842s0-9.542.154-9.842A1.114,1.114,0,0,1,77.455-359.539Zm6.928,0a1.01,1.01,0,0,1,.461.484l.161.331-.592,9.527c-.654,10.542-.577,9.911-1.161,10.242a1.1,1.1,0,0,1-1.576-.461l-.161-.331.584-9.488c.546-8.881.592-9.519.746-9.819a1.056,1.056,0,0,1,.484-.484A1.034,1.034,0,0,1,84.383-359.539Z" transform="translate(-28.201 -138.363)" fill="#0ba6ab"/>
  </g>
</svg>
