<svg xmlns="http://www.w3.org/2000/svg" width="51.738" height="57.8" viewBox="0 0 51.738 57.8">
  <g id="user_2_" data-name="user (2)" transform="translate(-24.165)">
    <g id="Group_2722" data-name="Group 2722" transform="translate(35.031)">
      <g id="Group_2721" data-name="Group 2721">
        <path id="Path_4707" data-name="Path 4707" d="M125.8,0a15.007,15.007,0,1,0,15.007,15.007A15.047,15.047,0,0,0,125.8,0Z" transform="translate(-110.791)" fill="#cbd3ff"/>
      </g>
    </g>
    <g id="Group_2724" data-name="Group 2724" transform="translate(24.165 31.088)">
      <g id="Group_2723" data-name="Group 2723" transform="translate(0)">
        <path id="Path_4708" data-name="Path 4708" d="M75.792,258.76a13.99,13.99,0,0,0-1.507-2.752,18.654,18.654,0,0,0-12.91-8.126,2.762,2.762,0,0,0-1.9.459,16,16,0,0,1-18.874,0,2.459,2.459,0,0,0-1.9-.459,18.518,18.518,0,0,0-12.91,8.126,16.13,16.13,0,0,0-1.507,2.752A1.394,1.394,0,0,0,24.349,260a26.144,26.144,0,0,0,1.769,2.621,24.9,24.9,0,0,0,3.015,3.408,39.276,39.276,0,0,0,3.015,2.621,29.885,29.885,0,0,0,35.65,0,28.815,28.815,0,0,0,3.015-2.621,30.262,30.262,0,0,0,3.015-3.408A22.973,22.973,0,0,0,75.6,260,1.118,1.118,0,0,0,75.792,258.76Z" transform="translate(-24.165 -247.841)" fill="#cbd3ff"/>
      </g>
    </g>
  </g>
</svg>
