<svg xmlns="http://www.w3.org/2000/svg" width="49.793" height="49.773" viewBox="0 0 49.793 49.773">
  <g id="user" transform="translate(-32.143 479.783)">
    <path id="Path_1571" data-name="Path 1571" d="M153.9-479.6a12.5,12.5,0,0,0-9.729,9.929,15.534,15.534,0,0,0,.044,4.814,12.405,12.405,0,0,0,9.74,9.74,14.54,14.54,0,0,0,5,0,12.438,12.438,0,0,0,9.629-9.184,9.576,9.576,0,0,0,.267-3.058,10.157,10.157,0,0,0-.245-3.013,12.713,12.713,0,0,0-9.084-9.128A17.074,17.074,0,0,0,153.9-479.6Zm4.725,3.68a11.976,11.976,0,0,1,3.436,1.757,9.352,9.352,0,0,1,2.958,4.736,10.043,10.043,0,0,1,.044,3.991,11,11,0,0,1-1.812,3.691,8.717,8.717,0,0,1-6.838,3.18,8.347,8.347,0,0,1-3.9-.945,8.533,8.533,0,0,1-4.036-4.181,7.987,7.987,0,0,1-.8-3.7A8.832,8.832,0,0,1,158.627-475.915Z" transform="translate(-99.427 0)" fill="#0f8096"/>
    <path id="Path_1572" data-name="Path 1572" d="M45.458-223.539a15.784,15.784,0,0,0-8.761,4.458,15.212,15.212,0,0,0-3.024,4.258,13.923,13.923,0,0,0-1.523,6.838,4.682,4.682,0,0,0,.311,2.113,6.081,6.081,0,0,0,3.224,3.235l.612.267,20.547.033c20.48.022,20.536.022,21.236-.2a6.817,6.817,0,0,0,2.568-1.712,6.263,6.263,0,0,0,1.145-2.168,14.571,14.571,0,0,0-.233-5.192,15.586,15.586,0,0,0-4.2-7.483,15.929,15.929,0,0,0-7.472-4.214l-1.123-.289-11.341-.022C51.184-223.628,45.8-223.595,45.458-223.539ZM68.651-219.8a12.245,12.245,0,0,1,6.1,3.324,11.843,11.843,0,0,1,3.513,8.139c0,1.156-.256,1.7-1.023,2.135l-.478.278H37.3l-.478-.278c-.767-.434-1.023-.978-1.023-2.135A12.131,12.131,0,0,1,45.3-219.77c1.323-.278,2.591-.311,12.4-.289C67.317-220.037,67.684-220.026,68.651-219.8Z" transform="translate(0 -227.682)" fill="#0f8096"/>
  </g>
</svg>
